<svg width="31" height="31" viewBox="0 0 31 31" fill="none" xmlns="http://www.w3.org/2000/svg">
<path d="M5.9675 23.405C7.285 22.3975 8.7575 21.6031 10.385 21.0219C12.0125 20.4406 13.7175 20.15 15.5 20.15C17.2825 20.15 18.9875 20.4406 20.615 21.0219C22.2425 21.6031 23.715 22.3975 25.0325 23.405C25.9367 22.3458 26.6406 21.1446 27.1444 19.8013C27.6481 18.4579 27.9 17.0242 27.9 15.5C27.9 12.0642 26.6923 9.13854 24.2769 6.72312C21.8615 4.30771 18.9358 3.1 15.5 3.1C12.0642 3.1 9.13854 4.30771 6.72312 6.72312C4.30771 9.13854 3.1 12.0642 3.1 15.5C3.1 17.0242 3.35187 18.4579 3.85562 19.8013C4.35938 21.1446 5.06333 22.3458 5.9675 23.405ZM15.5 17.05C13.9758 17.05 12.6906 16.5269 11.6444 15.4806C10.5981 14.4344 10.075 13.1492 10.075 11.625C10.075 10.1008 10.5981 8.81563 11.6444 7.76938C12.6906 6.72312 13.9758 6.2 15.5 6.2C17.0242 6.2 18.3094 6.72312 19.3556 7.76938C20.4019 8.81563 20.925 10.1008 20.925 11.625C20.925 13.1492 20.4019 14.4344 19.3556 15.4806C18.3094 16.5269 17.0242 17.05 15.5 17.05ZM15.5 31C13.3558 31 11.3408 30.5931 9.455 29.7794C7.56917 28.9656 5.92875 27.8612 4.53375 26.4662C3.13875 25.0713 2.03437 23.4308 1.22063 21.545C0.406875 19.6592 0 17.6442 0 15.5C0 13.3558 0.406875 11.3408 1.22063 9.455C2.03437 7.56917 3.13875 5.92875 4.53375 4.53375C5.92875 3.13875 7.56917 2.03437 9.455 1.22063C11.3408 0.406875 13.3558 0 15.5 0C17.6442 0 19.6592 0.406875 21.545 1.22063C23.4308 2.03437 25.0713 3.13875 26.4662 4.53375C27.8612 5.92875 28.9656 7.56917 29.7794 9.455C30.5931 11.3408 31 13.3558 31 15.5C31 17.6442 30.5931 19.6592 29.7794 21.545C28.9656 23.4308 27.8612 25.0713 26.4662 26.4662C25.0713 27.8612 23.4308 28.9656 21.545 29.7794C19.6592 30.5931 17.6442 31 15.5 31ZM15.5 27.9C16.8692 27.9 18.1608 27.6998 19.375 27.2994C20.5892 26.899 21.7 26.3242 22.7075 25.575C21.7 24.8258 20.5892 24.251 19.375 23.8506C18.1608 23.4502 16.8692 23.25 15.5 23.25C14.1308 23.25 12.8392 23.4502 11.625 23.8506C10.4108 24.251 9.3 24.8258 8.2925 25.575C9.3 26.3242 10.4108 26.899 11.625 27.2994C12.8392 27.6998 14.1308 27.9 15.5 27.9ZM15.5 13.95C16.1717 13.95 16.7271 13.7304 17.1662 13.2912C17.6054 12.8521 17.825 12.2967 17.825 11.625C17.825 10.9533 17.6054 10.3979 17.1662 9.95875C16.7271 9.51958 16.1717 9.3 15.5 9.3C14.8283 9.3 14.2729 9.51958 13.8337 9.95875C13.3946 10.3979 13.175 10.9533 13.175 11.625C13.175 12.2967 13.3946 12.8521 13.8337 13.2912C14.2729 13.7304 14.8283 13.95 15.5 13.95Z" fill="#F4663B"/>
</svg>
